<svg xmlns="http://www.w3.org/2000/svg" viewBox="3.9 -956.292 952.48 952.48" width="952.48" height="952.48">
  <path d="M 83.274 -956.292 L 877.006 -956.292 C 920.844 -956.292 956.38 -920.756 956.38 -876.918 L 956.38 -83.186 C 956.38 -39.352 920.844 -3.812 877.006 -3.812 L 83.274 -3.812 C 39.436 -3.812 3.9 -39.352 3.9 -83.186 L 3.9 -876.918 C 3.9 -920.756 39.436 -956.292 83.274 -956.292 Z" fill="#d6f8f4"></path>
  <path d="M345-120q-94 0-159.5-65.5T120-345q0-45 17-86t49-73l270-270q32-32 73-49t86-17q94 0 159.5 65.5T840-615q0 45-17 86t-49 73L504-186q-32 32-73 49t-86 17Zm273-265 114-113q23-23 35.5-53.5T780-615q0-69-48-117t-117-48q-33 0-63.5 12.5T498-732L385-618l233 233ZM345-180q32 0 63-12.5t54-35.5l113-114-233-233-114 113q-23 23-35.5 53.5T180-345q0 69 48 117t117 48Z" fill="#05445e"></path>
</svg>